<svg xmlns="http://www.w3.org/2000/svg" width="265" height="52" viewBox="0 0 265 52">
  <g fill="none" fill-rule="evenodd">
    <path fill="#E49924" d="M70.699,15.9766 C72.509,16.8556 73.096,16.7336 74.647,16.9836 L74.522,20.3566 C74.455,20.3396 71.578,20.3446 70.84,20.6486 C69.678,28.0076 62.2,33.8526 54.658,33.5736 C43.311,33.0016 38.284,22.1196 40.835,13.8016 C40.472,12.9856 37.097,11.1216 34.087,13.5866 C35.992,22.0636 30.174,32.5146 18.832,32.2466 C11.29,31.9676 4.265,25.5846 3.65,18.1596 C2.937,17.8016 0.068,17.5846 0,17.5976 L0.125,14.2226 C1.69,14.0896 2.266,14.2546 4.137,13.5116 C6.065,7.1256 12.951,2.7866 19.914,3.0446 C26.38,3.3006 30.536,6.1266 32.685,9.9216 C33.193,10.2406 33.894,10.3436 34.745,10.0366 C36.539,9.3486 37.124,9.4076 37.609,9.3766 L37.609,9.3826 L37.609,9.3766 C37.942,9.4226 38.77,9.3846 40.724,10.2686 C41.44,10.5946 42.042,10.5206 42.501,10.2756 C44.927,6.6546 49.277,4.1476 55.74,4.3716 C62.702,4.6296 69.248,9.4666 70.699,15.9766 Z M54.73,31.6186 C61.703,31.8766 67.585,26.4136 67.844,19.4406 C68.103,12.4686 62.64,6.5856 55.667,6.3266 C48.694,6.0686 42.811,11.5306 42.553,18.5046 C42.294,25.4766 47.757,31.3596 54.73,31.6186 Z M18.904,30.2916 C25.876,30.5496 31.76,25.0866 32.019,18.1136 C32.277,11.1406 26.814,5.2586 19.841,4.9996 C12.868,4.7416 6.985,10.2036 6.727,17.1776 C6.469,24.1496 11.932,30.0326 18.904,30.2916 Z"/>
    <path fill="#2DB49E" d="M30.0728,46.6957 C29.3648,46.1067 29.2718,45.0547 29.8598,44.3487 C30.4478,43.6437 31.4958,43.5497 32.1978,44.1307 C32.3748,44.2717 35.8248,46.9677 40.7498,44.9187 C41.6018,44.5657 42.5738,44.9667 42.9268,45.8167 C43.2808,46.6667 42.8798,47.6407 42.0298,47.9957 C40.2308,48.7437 38.5658,49.0217 37.0868,49.0217 C32.9248,49.0217 30.2228,46.8207 30.0728,46.6957 Z M25.4644,12.0737 C27.5974,12.2057 29.2194,14.0417 29.0884,16.1747 C28.9574,18.3067 27.1214,19.9297 24.9884,19.7987 C22.8554,19.6667 21.2324,17.8317 21.3634,15.6977 C21.4954,13.5647 23.3314,11.9427 25.4644,12.0737 Z M61.0582,13.5629 C63.1912,13.6939 64.8142,15.5299 64.6832,17.6629 C64.5502,19.7949 62.7142,21.4169 60.5812,21.2869 C58.4492,21.1559 56.8272,19.3199 56.9572,17.1869 C57.0892,15.0539 58.9242,13.4309 61.0582,13.5629 Z M125.2398,29.4672 C125.9518,29.4672 126.5458,30.0612 126.5458,30.7732 C126.5458,34.8662 105.2428,37.1812 101.5048,37.1812 C97.2328,37.1812 86.3148,37.1212 86.3148,30.9502 C86.3148,25.3732 94.5628,21.2192 98.9538,19.6172 C95.0968,18.5492 87.5018,15.7602 87.5018,10.7762 C87.5018,3.5962 100.8518,1.9942 106.1338,1.9942 C112.4228,1.9942 120.7308,3.4182 124.7648,8.8182 C125.0028,9.1742 125.2398,9.5892 125.2398,10.0642 C125.2398,11.6072 123.2218,12.1992 121.9768,12.1992 C121.1458,12.1992 119.8998,11.9622 119.8998,10.8952 C119.8998,10.4792 120.1358,10.0642 120.5528,9.8862 C117.8828,6.0292 110.1088,4.9612 105.8368,4.9612 C102.1578,4.9612 96.2238,5.6732 93.1378,7.9282 C92.2478,8.5802 91.0018,9.5892 91.0018,10.8352 C91.0018,14.9302 101.8608,17.5402 104.7088,18.0742 C106.3108,17.7782 107.9728,17.5402 109.6338,17.5402 C111.0578,17.5402 114.4408,17.7182 114.4408,19.7362 C114.4408,20.9232 113.3128,21.4562 112.3038,21.4562 C110.4648,21.4562 108.6848,21.1012 106.8448,21.1012 C106.4298,21.1012 105.9558,21.1012 105.5398,21.1602 C103.4628,21.3972 101.3858,21.8722 99.3688,22.5842 C96.6988,23.5332 89.9338,26.7972 89.9338,30.2982 C89.9338,33.7382 99.7248,34.3322 102.2178,34.3322 C109.9308,34.3322 117.4078,32.3162 124.5878,29.5862 C124.8238,29.5272 125.0028,29.4672 125.2398,29.4672 Z M152.4543,19.1419 C157.0253,19.1419 158.9833,22.7619 158.9833,26.8559 C158.9833,27.3899 158.8823,27.9229 158.7243,28.4579 C158.4773,28.8799 158.3113,29.3409 158.0863,29.7849 C157.7043,30.5409 157.2253,31.2829 156.6793,31.9279 C156.1553,32.5469 155.5353,33.0889 154.7883,33.4189 C154.7253,33.4469 154.6443,33.4689 154.5653,33.4929 C153.4723,33.7279 152.3763,33.8579 151.3273,33.8579 C149.3693,33.8579 147.3523,33.4429 145.5133,32.6709 C145.4533,36.1719 145.5133,47.5059 144.6823,50.5329 C144.3843,51.4219 143.7913,52.1939 142.7823,52.1939 C139.2233,52.1939 138.2133,43.7679 138.2133,41.0979 C138.2133,38.8819 138.4843,36.5289 139.0003,34.2209 C139.0763,33.9639 139.1423,33.7039 139.1853,33.4359 C139.2083,33.3569 139.2333,33.2779 139.2553,33.1979 C139.4363,32.5709 139.5803,31.9349 139.7553,31.3069 C139.8133,31.1389 139.8633,30.9699 139.9313,30.8039 C140.1703,30.2079 140.4443,29.6249 140.7033,29.0359 C140.9093,28.6179 141.0903,28.1919 141.2723,27.7649 C141.2793,27.7519 141.2853,27.7389 141.2923,27.7249 C141.3103,27.6929 141.3253,27.6629 141.3423,27.6299 L141.3683,27.5979 C141.7123,26.9479 142.0833,26.3219 142.4873,25.7289 C142.5453,25.4319 142.5453,25.0769 142.5453,24.7799 C142.5453,22.5249 142.3093,20.0919 141.8933,17.8369 C141.8333,17.7179 141.8333,17.5999 141.8333,17.4809 C141.8333,16.6509 142.6643,15.6419 143.5553,15.6419 C145.4533,15.6419 145.3343,20.7449 145.3943,21.9909 C147.3523,20.3889 149.8433,19.1419 152.4543,19.1419 Z M138.3492,29.3745 C138.3852,29.6975 138.4262,30.0135 138.4272,30.2685 C138.4342,31.5375 138.1202,32.8275 137.5262,33.9545 C136.3642,35.5275 134.2502,36.6465 132.3612,36.6465 C130.6402,36.6465 127.4362,35.6975 127.4362,33.5615 C127.4362,32.8505 127.9692,32.1965 128.6812,32.1965 C129.3942,32.1965 130.3432,33.1455 131.9462,33.1455 C133.1322,33.1455 134.4382,32.7305 135.3872,32.0205 C135.5652,31.6625 135.6242,31.1875 135.6242,30.7725 C135.6242,28.6955 132.4802,26.2635 130.9952,25.0175 C130.5222,25.9075 129.5722,28.2215 128.4452,28.2215 C127.7332,28.2215 127.3182,27.8065 127.3182,27.0945 C127.3182,25.6105 128.3852,24.0675 128.9192,22.7625 C128.6222,22.1095 128.5032,21.3965 128.5032,20.6865 C128.5032,19.0235 129.8692,15.4035 131.8862,15.4035 C133.0732,15.4035 133.3702,16.2945 133.3702,17.3035 C133.3702,18.8465 132.7772,20.5075 132.3012,21.9315 C134.3872,23.9015 137.6442,26.3855 138.3492,29.3745 Z M150.2593,30.7729 C152.4543,30.7729 155.7183,30.1789 155.7183,27.3899 C155.7183,24.9579 154.4733,22.3469 151.7423,22.3469 C149.8433,22.3469 145.8093,24.1859 145.5133,26.2039 C145.4533,26.6199 145.4533,27.0939 145.4533,27.5089 C145.4533,27.8649 145.4533,28.5179 145.5133,28.8739 C145.8683,30.1789 149.0723,30.7729 150.2593,30.7729 Z M142.3093,47.6839 C142.7243,42.2249 142.7823,36.7069 142.7823,31.2479 C141.5973,33.9769 141.1213,37.1219 141.1213,40.0889 C141.1213,42.1659 141.3593,45.7849 142.3093,47.6839 Z M224.7945,12.5424 C226.1585,12.5424 226.8115,13.8484 226.8115,15.0344 C226.8115,16.7554 225.5065,18.5344 223.6665,18.5344 C222.5995,18.5344 221.7085,17.8824 221.7085,16.7554 C221.7085,15.0344 222.7175,12.5424 224.7945,12.5424 Z M224.6695,32.7641 C224.7975,32.9291 224.9005,33.1061 224.9845,33.3011 C225.0625,34.0241 225.0005,34.7291 224.7035,35.3651 C224.3775,35.5341 224.0425,35.6751 223.6975,35.7851 C221.5245,35.6941 220.5295,34.2411 220.1455,32.4551 L220.0535,27.3091 C220.2875,24.5761 220.9465,21.2051 222.7765,21.2051 C223.6665,21.2051 224.2005,21.9171 224.2005,22.7481 C224.2005,24.4691 223.0735,27.5541 223.0735,30.1061 C223.0735,31.1741 223.0735,32.7771 224.5565,32.7771 C224.5935,32.7771 224.6315,32.7671 224.6695,32.7641 Z M236.8297,21.1254 C238.9057,21.1254 239.3207,23.7954 239.3207,25.3964 C239.3207,26.0354 239.2637,26.7294 239.1487,27.3694 C239.1427,27.3894 239.1347,27.4064 239.1297,27.4264 C238.9747,28.0154 238.9147,28.6314 238.7667,29.2254 C238.6807,29.5694 238.5517,29.8934 238.4407,30.2234 C238.3877,30.3404 238.3317,30.4564 238.2817,30.5744 C238.2717,30.5694 238.2627,30.5634 238.2537,30.5604 C237.1847,33.2894 233.0007,36.0534 231.4887,36.0784 C230.3727,36.0974 228.0037,34.2504 226.9087,31.9144 C226.7847,31.3084 226.6277,30.7114 226.5597,30.0944 C226.5187,29.7194 226.4907,29.3434 226.4597,28.9674 C226.4757,28.5214 226.4887,28.0754 226.5167,27.6314 C226.5287,27.4954 226.5597,27.3624 226.5747,27.2274 C226.5817,27.2174 226.5877,27.2064 226.5937,27.1964 C227.1247,24.2514 228.4477,20.1164 230.5397,20.1164 C231.3097,20.1164 232.0217,20.8884 232.0217,21.6004 C232.0217,22.2524 229.6487,26.1094 229.6487,29.4334 C229.6487,30.7974 230.6567,33.1244 231.9637,33.2294 C233.1377,33.3244 235.8197,30.0254 235.8197,28.6024 C235.8197,28.5944 235.8157,28.5824 235.8157,28.5734 C235.9117,28.1834 235.9077,27.7604 235.8587,27.3374 C235.9147,25.8054 235.6837,24.2684 235.5677,22.7274 C235.5957,22.5854 235.6017,22.4374 235.6427,22.3004 C235.7467,21.9364 235.8977,21.5814 236.1137,21.2694 C236.3197,21.1804 236.5547,21.1254 236.8297,21.1254 Z M255.8801,25.5161 C256.5921,25.5161 257.1261,26.1101 257.1261,26.8221 C257.1261,27.0591 257.0671,27.2961 256.9481,27.4741 C255.2871,30.8571 251.1331,34.4761 247.2171,34.4761 C244.2191,34.4761 242.1481,32.5641 241.2521,30.0511 C241.2381,30.0611 241.2231,30.0691 241.2081,30.0761 C241.1851,29.7781 241.0901,29.4801 240.9971,29.1911 C240.9601,28.9701 240.9191,28.7501 240.8751,28.5291 C240.8721,28.5121 240.8591,28.5051 240.8511,28.4931 C240.7831,27.8301 240.7451,27.1671 240.7321,26.5271 C240.7461,26.5091 240.7601,26.4911 240.7731,26.4741 C241.0421,22.6241 243.6581,17.6841 247.8701,17.6841 C249.9461,17.6841 251.1331,19.2261 251.1331,21.2431 C251.1331,24.8041 247.5731,28.3051 244.0721,28.4241 C244.4871,30.2031 245.7331,31.3311 247.5731,31.3311 C250.8951,31.3311 253.0321,28.5421 254.8121,26.1691 C255.1681,25.6941 255.2871,25.5161 255.8801,25.5161 Z M247.3951,20.4721 C245.3181,20.4721 244.1311,23.6181 243.9531,25.2191 C244.1911,25.2791 244.4281,25.3381 244.6661,25.3381 C246.2681,25.3381 248.2261,23.5581 248.2261,21.9551 C248.2261,21.5401 247.9291,20.4721 247.3951,20.4721 Z M212.2002,22.2521 C214.3362,24.2701 217.7182,26.8221 218.3122,29.9081 L218.3242,30.3251 C218.3062,31.6161 218.0622,32.9571 217.5182,34.1431 C216.3782,35.7851 214.2022,36.9681 212.2592,36.9681 C210.5382,36.9681 207.3342,36.0191 207.3342,33.8831 C207.3342,33.1711 207.8682,32.5181 208.5802,32.5181 C209.2922,32.5181 210.2422,33.4671 211.8442,33.4671 C213.0322,33.4671 214.3362,33.0521 215.2852,32.3401 C215.4632,31.9841 215.5242,31.5091 215.5242,31.0941 C215.5242,29.0171 212.3782,26.5841 210.8952,25.3381 C210.5652,25.9561 210.0052,27.2621 209.3172,28.0011 C208.2482,30.1361 205.5512,32.8001 204.1902,33.6451 C203.1812,35.5441 200.7482,36.9681 198.6132,36.9681 C196.8922,36.9681 193.6872,36.0191 193.6872,33.8831 C193.6872,33.1711 194.2212,32.5181 194.9332,32.5181 C195.6462,32.5181 196.5942,33.4671 198.1972,33.4671 C199.3832,33.4671 200.6892,33.0521 201.6382,32.3401 C201.8172,31.9841 201.8752,31.5091 201.8752,31.0941 C201.8752,29.0171 198.7312,26.5841 197.2472,25.3381 C196.9142,25.9621 196.3472,27.2841 195.6502,28.0201 C193.8312,31.2351 189.9162,34.4761 186.2102,34.4761 C184.1132,34.4761 182.4812,33.5301 181.3772,32.1041 C181.3512,32.0801 181.3212,32.0691 181.2952,32.0401 C181.0622,31.7721 180.8672,31.4931 180.6952,31.1801 C180.6672,31.1301 180.6602,31.0821 180.6472,31.0351 C180.1902,30.3261 179.9832,29.4481 179.8322,28.5921 C179.6762,27.7051 179.6692,26.8201 179.8232,25.9641 C180.2732,22.2011 182.8342,17.6841 186.8642,17.6841 C188.9402,17.6841 190.1262,19.2261 190.1262,21.2431 C190.1262,24.8041 186.5672,28.3051 183.0662,28.4241 C183.4812,30.2031 184.7282,31.3311 186.5672,31.3311 C189.8672,31.3311 191.9952,28.5811 193.7682,26.2191 C194.1032,25.1241 194.7802,24.0391 195.1702,23.0831 C194.8732,22.4311 194.7552,21.7181 194.7552,21.0061 C194.7552,19.3451 196.1192,15.7251 198.1372,15.7251 C199.3252,15.7251 199.6202,16.6161 199.6202,17.6241 C199.6202,19.1671 199.0282,20.8281 198.5522,22.2521 C200.6892,24.2701 204.0722,26.8221 204.6642,29.9081 C205.7672,28.8051 206.6122,27.5991 207.3932,26.2921 C207.7182,25.1731 208.4172,24.0611 208.8192,23.0831 C208.5222,22.4311 208.4032,21.7181 208.4032,21.0061 C208.4032,19.3451 209.7682,15.7251 211.7842,15.7251 C212.9712,15.7251 213.2692,16.6161 213.2692,17.6241 C213.2692,19.1671 212.6752,20.8281 212.2002,22.2521 Z M186.3882,20.4721 C184.3122,20.4721 183.1252,23.6181 182.9472,25.2191 C183.1852,25.2791 183.4212,25.3381 183.6592,25.3381 C185.2612,25.3381 187.2192,23.5581 187.2192,21.9551 C187.2192,21.5401 186.9222,20.4721 186.3882,20.4721 Z M177.7086,29.7026 C178.4966,29.7026 179.1376,30.3726 179.1376,31.1976 C179.1376,31.8426 178.7416,32.3796 178.1946,32.5896 C176.6886,34.1846 174.8146,35.3416 172.7286,35.3416 C169.4646,35.3416 168.5736,32.6116 168.5736,29.8236 C168.5736,28.7556 168.6336,27.6286 168.8116,26.5596 C167.7856,27.1526 166.8026,27.5736 165.6516,27.5156 C165.4296,27.7366 165.2156,27.9646 164.9996,28.1876 C164.9836,28.2066 164.9796,28.2266 164.9626,28.2456 C164.6876,28.5346 164.3856,28.7906 164.0906,29.0536 C164.0706,29.0776 164.0536,29.1006 164.0336,29.1246 C164.0096,29.1516 163.9866,29.1716 163.9566,29.2036 C163.9156,29.2456 163.8686,29.2816 163.8266,29.3206 C163.7156,29.3956 163.6046,29.4796 163.5086,29.5796 C163.4936,29.5846 163.4796,29.5916 163.4666,29.5936 C163.4156,29.6336 163.3596,29.6656 163.3106,29.7046 C162.5956,30.3636 161.8006,30.9576 160.9376,31.4696 L160.9366,31.4636 C160.5326,31.6536 160.0626,31.6906 159.6206,31.4996 C159.4796,31.4376 159.3686,31.3386 159.2566,31.2446 C159.1486,31.0356 159.0456,30.8256 158.9726,30.5906 C158.9736,30.0556 159.0246,29.5316 159.3586,29.0726 C159.5046,28.8726 159.6706,28.6896 159.8346,28.5066 C159.8366,28.5056 159.8386,28.5046 159.8406,28.5046 C159.8516,28.4876 159.8656,28.4746 159.8776,28.4586 C160.3336,28.3506 160.8916,28.0266 161.1876,27.6196 C161.8276,26.9856 162.5436,26.2836 163.1736,25.8456 C162.9956,25.4896 162.9376,25.1346 162.9376,24.7206 C162.9376,22.9996 164.4796,17.6596 166.6146,17.6596 C167.4456,17.6596 168.0406,18.5496 168.0406,19.3206 C168.0406,21.1006 167.0306,22.8216 166.3186,24.4236 C166.4966,24.4236 166.6146,24.4826 166.7336,24.4826 C170.4126,24.4826 169.5836,19.7956 172.1346,19.7956 C173.0236,19.7956 173.5586,20.6266 173.5586,21.4566 C173.5586,22.2876 173.1436,22.7626 172.6076,23.3556 C172.0736,24.0086 171.5406,27.8646 171.5406,28.8736 C171.5406,30.2386 171.8966,32.0786 173.6166,32.0786 C174.7906,32.0786 175.6656,31.4936 176.3786,30.6806 C176.4816,30.3896 176.6746,30.1616 176.9126,29.9886 C176.9376,29.9536 176.9646,29.9196 176.9876,29.8846 C177.1636,29.7906 177.3516,29.7376 177.5496,29.7366 C177.6046,29.7296 177.6506,29.7026 177.7086,29.7026 Z M262.8228,31.0942 C263.9498,31.0942 264.9588,32.1622 264.9588,33.2892 C264.9588,34.7732 263.6538,36.7902 262.0518,36.7902 C260.8648,36.7902 259.6768,35.7812 259.6768,34.5352 C259.6768,33.2892 261.5178,31.0942 262.8228,31.0942 Z M262.5259,28.186 C259.6779,28.186 260.2119,21.837 260.2119,19.82 C260.2119,13.886 260.5089,7.893 260.9229,2.018 C260.9839,0.951 261.6949,0 262.8819,0 C263.5349,0 264.3059,0.535 264.3059,1.249 L264.3059,1.663 C264.2469,6.944 263.2969,11.987 263.2969,17.328 C263.2969,19.048 263.2969,24.567 263.8319,25.873 C264.0689,26.11 264.2469,26.407 264.2469,26.704 C264.2469,27.534 263.2969,28.186 262.5259,28.186 Z"/>
  </g>
</svg>
